<svg width="48" height="47" viewBox="0 0 48 47" fill="none" xmlns="http://www.w3.org/2000/svg">
<rect x="0.5" width="47" height="47" rx="23.5" fill="#89D2DF"/>
<path d="M27.4866 24.3701V31.3331" stroke="#0C0C20" stroke-width="2" stroke-linecap="round" stroke-linejoin="round"/>
<path d="M20.5236 24.3701V31.3331" stroke="#0C0C20" stroke-width="2" stroke-linecap="round" stroke-linejoin="round"/>
<path d="M24.0051 26.1108V33.0738" stroke="#0C0C20" stroke-width="2" stroke-linecap="round" stroke-linejoin="round"/>
<path d="M30.9681 27.4859C31.883 27.0852 32.6323 26.3819 33.0901 25.4941C33.5479 24.6063 33.6863 23.588 33.4822 22.6102C33.2781 21.6325 32.7438 20.7546 31.969 20.1242C31.1943 19.4937 30.2262 19.1489 29.2273 19.1478H28.1307C27.8548 18.0794 27.3289 17.0919 26.5965 16.2667C25.864 15.4414 24.9459 14.8021 23.9179 14.4013C22.8898 14.0005 21.7812 13.8498 20.6835 13.9616C19.5858 14.0734 18.5303 14.4444 17.6041 15.0442C16.678 15.644 15.9076 16.4552 15.3565 17.4112C14.8054 18.3671 14.4894 19.4403 14.4345 20.5424C14.3796 21.6444 14.5874 22.7437 15.0408 23.7497C15.4942 24.7557 16.1801 25.6395 17.0421 26.3283" stroke="#0C0C20" stroke-width="2" stroke-linecap="round" stroke-linejoin="round"/>
</svg>
