<svg width="80" height="97" viewBox="0 0 80 97" fill="none" xmlns="http://www.w3.org/2000/svg">
<path d="M36.32 39.92C35.84 36.9333 34.9867 34.4533 33.76 32.48C32.5333 30.4533 30.96 28.9333 29.04 27.92C27.1733 26.9067 24.9867 26.4267 22.48 26.48C20.1867 26.48 18.16 27.12 16.4 28.4C14.6933 29.68 13.84 31.3333 13.84 33.36C13.84 35.0133 14.2933 36.4533 15.2 37.68C16.16 38.9067 17.6 40.0533 19.52 41.12C21.44 42.1867 23.8667 43.3333 26.8 44.56C28.8267 45.36 30.9067 46.2933 33.04 47.36C35.1733 48.4267 37.1467 49.7067 38.96 51.2C40.7733 52.64 42.24 54.3467 43.36 56.32C44.48 58.24 45.04 60.5067 45.04 63.12C45.04 66.2667 44.1867 69.0667 42.48 71.52C40.7733 73.9733 38.3733 75.8933 35.28 77.28C32.24 78.6133 28.6667 79.28 24.56 79.28C22.4267 79.28 20.1067 78.9333 17.6 78.24C15.1467 77.6 12.8267 76.64 10.64 75.36L10.88 78.72H4.72V60H10C10.7467 64.48 12.4533 67.8667 15.12 70.16C17.84 72.4 21.0667 73.52 24.8 73.52C26.72 73.52 28.4 73.1733 29.84 72.48C31.28 71.7867 32.4 70.88 33.2 69.76C34 68.5867 34.4 67.3333 34.4 66C34.4 64.1333 33.7333 62.5867 32.4 61.36C31.12 60.1333 29.4933 59.0933 27.52 58.24C25.6 57.3867 23.6267 56.56 21.6 55.76C19.04 54.6933 16.64 53.5733 14.4 52.4C12.2133 51.1733 10.2933 49.7867 8.64 48.24C6.98667 46.6933 5.70667 44.9333 4.8 42.96C3.89333 40.9333 3.44 38.6133 3.44 36C3.44 34.3467 3.76 32.64 4.4 30.88C5.04 29.0667 6.08 27.4133 7.52 25.92C8.96 24.3733 10.88 23.12 13.28 22.16C15.68 21.2 18.64 20.72 22.16 20.72C24.2933 20.72 26.6133 21.04 29.12 21.68C31.68 22.32 33.8667 23.28 35.68 24.56L35.36 21.28H41.6V39.92H36.32Z" fill="#89D2DF"/>
<rect x="66" y="36" width="8" height="44" fill="#89D2DF"/>
<rect x="56.2239" y="39" width="21.3635" height="6" transform="rotate(44.7475 56.2239 39)" fill="#89D2DF"/>
<rect x="61" y="74" width="18.3111" height="6" fill="#89D2DF"/>
<rect x="60" y="18" width="20" height="16" rx="8" fill="#89D2DF"/>
<rect x="65" y="22" width="10" height="9" rx="4.5" fill="black"/>
</svg>
