<svg width="47" height="47" viewBox="0 0 47 47" fill="none" xmlns="http://www.w3.org/2000/svg">
<rect width="47" height="47" rx="23.5" fill="#89D2DF"/>
<path d="M36.7273 24.6011H35.4545C35.4545 19.5706 31.4709 15.502 26.5455 15.502H25.2727V13.8512C25.6598 13.6229 25.9812 13.2946 26.2046 12.8993C26.428 12.504 26.5456 12.0555 26.5455 11.5991C26.5453 11.1426 26.4275 10.6942 26.2039 10.299C25.9803 9.90378 25.6588 9.57566 25.2716 9.34763C24.8844 9.1196 24.4453 8.99971 23.9984 9C23.5514 9.00029 23.1125 9.12076 22.7256 9.3493C22.3387 9.57783 22.0175 9.90637 21.7944 10.3019C21.5713 10.6974 21.4541 11.1459 21.4545 11.6024C21.4545 12.5643 21.9636 13.4092 22.7273 13.8512V15.502H21.4545C16.5291 15.502 12.5455 19.5706 12.5455 24.6011H11.2727C10.5727 24.6011 10 25.186 10 25.9009V29.8005C10 30.5155 10.5727 31.1004 11.2727 31.1004H12.5455V32.4003C12.5455 33.0898 12.8136 33.751 13.291 34.2386C13.7684 34.7261 14.4158 35 15.0909 35H32.9091C34.3218 35 35.4545 33.8431 35.4545 32.4003V31.1004H36.7273C37.4273 31.1004 38 30.5155 38 29.8005V25.9009C38 25.186 37.4273 24.6011 36.7273 24.6011ZM35.4545 28.5007H32.9091V32.4003H15.0909V28.5007H12.5455V27.2008H15.0909V24.6011C15.0909 21.0134 17.9418 18.1017 21.4545 18.1017H26.5455C30.0582 18.1017 32.9091 21.0134 32.9091 24.6011V27.2008H35.4545V28.5007ZM19.5455 23.9511L22.5491 27.0188L21.0473 28.5527L19.5455 27.0188L18.0436 28.5527L16.5418 27.0188L19.5455 23.9511ZM28.4545 23.9511L31.4582 27.0188L29.9564 28.5527L28.4545 27.0188L26.9527 28.5527L25.4509 27.0188L28.4545 23.9511Z" fill="#0C0C20"/>
</svg>
