<svg width="47" height="48" viewBox="0 0 47 48" fill="none" xmlns="http://www.w3.org/2000/svg">
<rect y="0.5" width="47" height="47" rx="23.5" fill="#89D2DF"/>
<path d="M24.5263 34V30.7712L30.3421 24.9962C30.5 24.8387 30.6754 24.725 30.8684 24.655C31.0614 24.585 31.2544 24.55 31.4474 24.55C31.6579 24.55 31.8596 24.5895 32.0526 24.6686C32.2456 24.7477 32.421 24.8657 32.5789 25.0225L33.5526 25.9937C33.693 26.1512 33.8028 26.3262 33.8821 26.5187C33.9614 26.7112 34.0007 26.9037 34 27.0962C33.9993 27.2887 33.9642 27.4858 33.8947 27.6874C33.8253 27.889 33.7112 28.0682 33.5526 28.225L27.7632 34H24.5263ZM26.1053 32.425H27.1053L30.2895 29.2225L29.8158 28.7238L29.3158 28.2512L26.1053 31.4275V32.425ZM16.1053 34C15.5263 34 15.0309 33.7945 14.6189 33.3836C14.207 32.9727 14.0007 32.4782 14 31.9V15.1C14 14.5225 14.2063 14.0283 14.6189 13.6174C15.0316 13.2065 15.527 13.0007 16.1053 13H24.5263L30.8421 19.3V22.45H28.7368V20.35H23.4737V15.1H16.1053V31.9H22.421V34H16.1053ZM29.8158 28.7238L29.3158 28.2512L30.2895 29.2225L29.8158 28.7238Z" fill="#0C0C20"/>
</svg>
